# Blender 4.5.3 LTS
# www.blender.org
mtllib spotLight.mtl
o Cone
v 0.000000 0.167103 -0.100473
v 0.000000 0.040189 0.100473
v 0.098221 0.135189 -0.100473
v 0.023623 0.032514 0.100473
v 0.158924 0.051638 -0.100473
v 0.038222 0.012419 0.100473
v 0.158924 -0.051638 -0.100473
v 0.038222 -0.012419 0.100473
v 0.098221 -0.135189 -0.100473
v 0.023623 -0.032514 0.100473
v 0.000000 -0.167103 -0.100473
v 0.000000 -0.040189 0.100473
v -0.098221 -0.135189 -0.100473
v -0.023623 -0.032514 0.100473
v -0.158924 -0.051638 -0.100473
v -0.038222 -0.012419 0.100473
v -0.158924 0.051638 -0.100473
v -0.038222 0.012419 0.100473
v -0.098221 0.135189 -0.100473
v -0.023623 0.032514 0.100473
vn 0.2649 0.8153 0.5149
vn 0.6935 0.5039 0.5149
vn 0.8572 -0.0000 0.5149
vn 0.6935 -0.5039 0.5149
vn 0.2649 -0.8153 0.5149
vn -0.2649 -0.8153 0.5149
vn -0.6935 -0.5039 0.5149
vn -0.8572 -0.0000 0.5149
vn -0.0000 -0.0000 1.0000
vn -0.6935 0.5039 0.5149
vn -0.2649 0.8153 0.5149
vn -0.0000 -0.0000 -1.0000
s 0
f 1//1 2//1 4//1 3//1
f 3//2 4//2 6//2 5//2
f 5//3 6//3 8//3 7//3
f 7//4 8//4 10//4 9//4
f 9//5 10//5 12//5 11//5
f 11//6 12//6 14//6 13//6
f 13//7 14//7 16//7 15//7
f 15//8 16//8 18//8 17//8
f 4//9 2//9 20//9 18//9 16//9 14//9 12//9 10//9 8//9 6//9
f 17//10 18//10 20//10 19//10
f 19//11 20//11 2//11 1//11
f 1//12 3//12 5//12 7//12 9//12 11//12 13//12 15//12 17//12 19//12
